<?xml version="1.0" encoding="UTF-8"?>
<svg id="Layer_1" data-name="Layer 1" xmlns="http://www.w3.org/2000/svg" version="1.1" viewBox="0 0 992.1 992.1">
  <defs>
    <style>
      .cls-1 {
        fill: #eb605a;
      }

      .cls-1, .cls-2, .cls-3, .cls-4, .cls-5, .cls-6, .cls-7, .cls-8, .cls-9, .cls-10, .cls-11, .cls-12 {
        fill-rule: evenodd;
      }

      .cls-1, .cls-2, .cls-3, .cls-4, .cls-5, .cls-6, .cls-7, .cls-8, .cls-9, .cls-10, .cls-11, .cls-12, .cls-13, .cls-14 {
        stroke-width: 0px;
      }

      .cls-2 {
        fill: #dc2326;
      }

      .cls-3 {
        fill: #d34844;
      }

      .cls-15 {
        display: none;
        fill: none;
        stroke: #fff;
        stroke-linecap: square;
        stroke-linejoin: round;
        stroke-width: 53px;
      }

      .cls-4 {
        fill: #d62027;
      }

      .cls-5 {
        fill: #e75c59;
      }

      .cls-6 {
        fill: #ea6059;
      }

      .cls-7 {
        fill: #ec1c24;
      }

      .cls-8 {
        fill: #f6a399;
      }

      .cls-9 {
        fill: #ef4643;
      }

      .cls-10 {
        fill: #e58a8d;
      }

      .cls-16 {
        fill: #d8d8d8;
        stroke: #d8d8d8;
        stroke-miterlimit: 10;
        stroke-width: 20px;
      }

      .cls-11 {
        fill: #c83e40;
      }

      .cls-12 {
        fill: #e6323b;
      }

      .cls-13 {
        fill: #969696;
      }

      .cls-14 {
        fill: #7f7f7f;
      }
    </style>
  </defs>
  <polygon class="cls-14" points="312 103 338.3 61.2 483 57.7 507.5 80.4 557 115.6 777.9 115.6 777.9 157 782 172 933 169.1 941.9 177.6 910 222 777.9 483 247.2 473 247.2 128 312 103"/>
  <path class="cls-16" d="M227.7,479V137.6c0-24.4,12-36.5,36.2-36.5h16.8c8.4,0,14.5-1.3,18-4s6.4-7.7,8.2-15.4l2.9-11.8c3.2-12.3,7.2-19.9,12.1-22.7,4.6-2.7,16-4.1,34-4.1h112.6c16.2,0,26.6,1.3,31.2,3.8,4.5,2.5,8.4,9.5,11.8,20.6l3.2,10.8c3.3,11.2,6.5,17.8,9.3,19.7,2.8,2,10.8,2.9,23.8,2.9h203.6c13.9,0,23.3,2.7,28.4,7.8,5,5.2,7.5,15,7.5,29.3v28.4h116.9c21.2,0,32.1,3.7,32.7,11.2.2,1.6-3.2,9.6-10.3,24l-139.3,277.3H227.7v.2h0ZM242.2,449l126.7-246.8c9.2-17.8,16.3-28.3,21.5-31.2,5-2.9,18.3-4.4,39.7-4.4h342.8v-28.3c0-15.2-7.3-22.7-22.1-22.7h-204.6c-18.4,0-29.8-1.1-34.2-3.2-4.3-2.3-7.8-8.8-10.6-19.9l-3.5-13.6c-2.7-9.7-5.4-15.6-8.7-17.8-3.2-2.3-10.5-3.4-21.6-3.4h-109c-12.5,0-21,1.2-25.3,3.5-4.3,2.7-7.6,8-10,16.5l-3.6,13.6c-3.1,11.2-6.5,18.1-10.5,20.6-3.8,2.5-12.2,3.8-25.4,3.8h-18.3c-9.4,0-15.6,1.4-18.7,4.2-3,2.9-4.5,8.9-4.5,18.2v311h-.1ZM251,464.5h526.9l130.5-261.4c4.3-9.5,6.5-14.8,6.5-15.9-.6-4.1-6.7-6.2-18.3-6.2h-475.3c-11.4,0-19.2,1.3-23.5,3.8s-8.7,8.3-13.3,17.4l-133.4,262.3h-.1Z"/>
  <path class="cls-15" d="M558.6,780.1c-.9-.5-1.9-1.1-2.7-1.6.9.5,1.8,1.1,2.7,1.6,4.7,2.8,11.1,6.9,15.9,8.9v-151h0l-133.8-68.6h0l133.8,68.4v-149.5h0c-3.4-3-177.7-88.4-190.4-94.7-9.2-4.6-59.4-30.5-64.4-31.6v146.5l-1.1.8c3.5,5.3-.8,113.9,1.6,132.2h0c-2.6-18.3,1.9-126.9-1.6-132.2-8.9,3.5-21.1,10.6-30.4,15-10.2,5-19.5,10.2-29.1,15-9.1,4.7-54.1,28.7-60.2,29.8h0c6.2-1.1,51.1-25.1,60-29.8,9.6-5,19.1-10.2,29.1-15,9.2-4.5,21.4-11.7,30.4-15l1.2-.8v-146.5c-4.5,1.1-58,28.5-63.6,31.3l-127.5,63.3c-10.3,5.2-21.7,11.5-31.7,15.7-5.4,2.2-29,13.4-31.9,16.3h0v300.5h0c1.4,1.2-.7-.3,1.6,1.5.7.5,1.1.8,1.9,1.2l91.2,57.3c30.1,18.8,66.4,40.8,95.7,60,5.6,3.7,10.7,6.5,15.9,9.9,2.6,1.8,4.7,2.8,7.6,4.7l32.3,20.3c3.3,1.9,5.2,3.9,8.7,4.9,1.4.7,3-1.1,6.6-3.5l40-25.1c20.9-12.3,60.7-38.1,80.4-50.7,5.6-3.5,10.3-6.2,15.9-9.9,2.8-1.9,5-3,7.6-4.7l40.4-25.6c5.6-3.5,10.4-6.2,15.9-9.9s10.4-6.8,15.9-9.9c2.7-1.6,28.9-17.9,32-20.6-4.7-1.9-11.1-6.1-15.9-8.9h0,0ZM319.6,642.4c-1.1.4-2.3,1.1-3.7,1.8,1.4-.7,2.6-1.4,3.5-1.8h.2ZM311.2,646.9c-3,1.8-6,3.7-8.3,4.9l-79.7,46.1c-5.6,3.3-10.3,5.8-15.7,9.1-4.6,2.7-11.2,7-16,8.9h0c4.7-1.9,11.4-6.1,16-8.9,5.4-3.3,10-5.8,15.7-9.1l79.7-46.1c2.2-1.2,5.2-3.1,8.3-4.9ZM315.1,644.6c-.4,0-.7.4-1.1.5.4,0,.7-.4,1.1-.5ZM312.8,646c-.5.3-.9.5-1.5.8.5-.3.9-.5,1.5-.8ZM320,641.5h0ZM198.7,570.3c-10.2,4.2-22.9,11.4-32.9,16.5-14.8,7.6-97,48.9-99.8,51.6h0c2-2.4,85-44.1,99.8-51.6,10-5.2,22.8-12.3,32.9-16.5h0c5.8.4,24.7,13.4,30.6,17.1-6.1-3.7-24.9-16.7-30.6-17.1h0ZM145.4,742.9c10.3-5.8,22.6-12.7,31.9-18.3-9.2,5.6-21.6,12.5-31.9,18.3ZM448.5,716.7c-4.3,1.5-12.9,7.5-16.9,9.9-5.7,3.5-10.4,6.5-15.9,9.9-7.6,4.7-91.8,57.5-96.2,58.8h0c4.5-1.4,88.6-54.1,96.2-58.8,5.4-3.4,10.2-6.4,15.9-9.9,4.1-2.4,12.6-8.4,16.9-9.9,4.7,2,85.1,49.1,94.5,54.4,1.1.5,2,1.1,3,1.6-.9-.5-1.9-1.1-2.8-1.6-9.4-5.3-89.6-52.3-94.5-54.4h-.2Z"/>
  <g>
    <path class="cls-7" d="M339.5,621.8c-7.6-3.1-85.7-51.2-99.7-59.5-6.7-4.1-27.4-18.4-33.7-18.8-11.2,4.6-25.2,12.5-36.2,18.1-16.3,8.4-107.4,54.1-109.8,56.7,5.5,4.6,120.9,74.7,137,85.1h1c5.2-2,12.6-6.7,17.6-9.7,5.9-3.6,11-6.4,17.3-10l87.7-50.7c4.7-2.9,13.3-8.2,18.1-10.3,20.2,9.1,132.9,78.9,141.6,80.8,5.2-2.2,91.9-56.7,103.5-63.7l35.2-21.9v-.3l-147.3-75.2h-2.1c-.8.8-.4.4-2,1.6-.3.3-1.8,1.2-2.1,1.5l-12.9,7.6c-27.6,16.5-91,56.3-113.6,68.4h.2l.2.3Z"/>
    <path class="cls-11" d="M338.9,791l.3,168.9c1.5.8,3.3-1.2,7.3-3.8l44-27.6c23-13.5,66.8-41.9,88.4-55.8,6.2-3.8,11.3-6.8,17.5-10.9,3.1-2.1,5.5-3.3,8.4-5.2l44.4-28.2c6.2-3.8,11.4-6.8,17.5-10.9,6-4.1,11.4-7.5,17.5-10.9,3-1.8,31.8-19.7,35.2-22.7-5.2-2.1-12.2-6.7-17.5-9.8-6.2-3.6-11-6.4-17.3-10-10.3-5.8-98.5-57.5-103.9-59.8-4.7,1.6-14.2,8.2-18.6,10.9s-11.4,7.1-17.5,10.9c-8.4,5.2-101,63.2-105.8,64.7h.3-.2v.2Z"/>
    <path class="cls-3" d="M58.8,784.1c1.5,1.3-.8-.3,1.8,1.5.8.5,1.2.9,2.1,1.3l100.3,63c33.1,20.7,73,44.9,105.2,66,6.2,4.1,11.8,7.1,17.5,10.9s5.2,3.1,8.4,5.2l35.5,22.3c3.6,2.1,5.7,4.3,9.6,5.4l-.3-168.9c-7-3.4-95.1-58.7-105.8-65.4-7.1-4.5-29.8-17.7-34.9-21.9h-1c-4.1,4.6-58.6,34.4-69.2,40.7-11.3,6.7-23,13.4-34.5,20-10.6,6.2-24.3,15.2-34.8,19.7h.3l-.2.2h0Z"/>
    <path class="cls-8" d="M339,475.5l131,66.8h2.1l147.3-88.9c-3.1-3-195.4-97.2-209.4-104.4-10.1-5.1-65.3-33.5-70.8-34.8v161.1h-.1v.2Z"/>
    <path class="cls-10" d="M58.8,453.6c4.9,2.2,67.9,40.6,74.1,44.4,10,6.2,69.3,40.8,73,44.5,6.6-1,56.2-27.6,66.2-32.8,10.6-5.5,21-11.2,32-16.5,10.1-4.9,23.5-12.9,33.4-16.5l1.3-.9v-161.1c-4.9,1.2-63.8,31.3-69.9,34.4l-140.2,69.6c-11.3,5.7-23.9,12.6-34.9,17.3-5.9,2.4-31.9,14.7-35.1,17.9h0v-.3h.1Z"/>
    <path class="cls-5" d="M58.8,784.1c10.4-4.5,24-13.7,34.8-19.7,11.4-6.6,23.2-13.1,34.5-20,10.6-6.3,65.1-36.1,69.2-40.8-16.3-10.6-131.6-80.5-137-85.1,2.2-2.6,93.5-48.5,109.8-56.7,11-5.7,25.1-13.5,36.2-18.1v-1c-3.8-3.7-63.2-38.6-73.2-44.5-6.3-3.8-69.2-42-74.1-44.4v330.6h0,0l-.2-.3Z"/>
    <polygon class="cls-1" points="472 542.5 619.2 618 619.2 453.6 472 542.5"/>
    <path class="cls-4" d="M338.9,791c4.9-1.5,97.4-59.5,105.8-64.7,5.9-3.7,11.2-7,17.5-10.9,4.5-2.6,13.9-9.2,18.6-10.9v-.9c-8.8-2-121.5-71.7-141.6-80.8v168.2h-.3.1-.1Z"/>
    <path class="cls-2" d="M198.2,703.6c5.2,4.2,27.7,17.5,34.9,21.9,10.9,6.7,98.9,62,105.8,65.4v-168.2c-4.9,2.1-13.3,7.5-18.1,10.3l-87.7,50.7c-6.2,3.6-11.3,6.4-17.3,10-5.1,3-12.5,7.7-17.6,9.8h0Z"/>
    <path class="cls-6" d="M480.7,703.6v.9c5.2,2.2,93.6,54,103.9,59.8,6.3,3.6,11.2,6.4,17.3,10,5.2,3.1,12.2,7.6,17.5,9.8v-166.1l-35.2,21.9c-11.4,6.8-98.1,61.3-103.5,63.7h0Z"/>
    <path class="cls-9" d="M339.5,621.8c22.7-12.1,86-51.9,113.6-68.4l12.9-7.6c.4,0,1.8-1.2,2.1-1.5,1.5-1.2,1.2-.9,2-1.8l-131-66.8-1.3.9c3.8,5.8-.9,125.3,1.8,145.4h.1v-.2h-.2Z"/>
    <path class="cls-12" d="M206.1,542.5v1c6.4.4,27.2,14.7,33.9,18.8,13.9,8.4,92.2,56.5,99.7,59.5-2.9-20.1,2.1-139.6-1.8-145.4-9.8,3.8-23.2,11.7-33.4,16.5-11.2,5.5-21.4,11.2-32,16.5-10,5.2-59.6,31.8-66.2,32.8h-.1v.3h-.1Z"/>
  </g>
  <path class="cls-13" d="M440.5-186"/>
</svg>